User Type,Username,Date,Text
,ScorpioTiger,2006-08-17T01:36Z,"What a brilliant post. I never expected to see this posted as a full DVD.  Thank-you.

Here's info and screenshots for those who don't know of this movie http://www.spiritofbaraka.com/chronos.aspx"
,mpoit957,2006-08-17T02:43Z,PAL or NTSC?
,tr0ma,2006-08-17T02:49Z,It's PAL.
,Guilba,2006-08-17T17:26Z,"Sounds great. Do you have Baraka also?
Thanks"
,surround-man,2006-08-17T20:07Z,"Great post !!
BTW, is the sound on this DVD in DTS 96/24 ? The best surround format, definitely.

Please, Seed it eternally !"
,shizznit,2009-07-18T13:25Z,Please seed!
,Maharaja-Krishna,2010-09-08T05:02Z,"Rather awfull video quality 3/10.
If you don't need a DVD format go for this mkv torrent:
http://thepiratebay.org/torrent/3706958

MediaInfo of the VTS_01_1.VOB

General
Complete name                    : VTS_01_1.VOB
Format                           : MPEG-PS
File size                        : 1 024 MiB
Duration                         : 15mn 41s
Overall bit rate                 : 9 120 Kbps

Video
ID                               : 224 (0xE0)
Format                           : MPEG Video
Format version                   : Version 2
Format profile                   : Main@Main
Format settings, BVOP            : Yes
Format settings, Matrix          : Default
Format settings, GOP             : M=2, N=15
Duration                         : 15mn 41s
Bit rate mode                    : Constant
Bit rate                         : 7 000 Kbps
Width                            : 720 pixels
Height                           : 480 pixels
Display aspect ratio             : 4:3
Frame rate                       : 29.970 fps
Standard                         : NTSC
Color space                      : YUV
Chroma subsampling               : 4:2:0
Bit depth                        : 8 bits
Scan type                        : Interlaced
Scan order                       : Top Field First
Bits/(Pixel*Frame)               : 0.676
Stream size                      : 784 MiB (77%)

Audio #1
ID                               : 128 (0x80)
Format                           : AC-3
Format/Info                      : Audio Coding 3
Mode extension                   : CM (complete main)
Duration                         : 15mn 41s
Bit rate mode                    : Constant
Bit rate                         : 448 Kbps
Channel(s)                       : 5 channels
Channel positions                : Front: L C R, Side: L R
Sampling rate                    : 48.0 KHz
Bit depth                        : 16 bits
Video delay                      : -4ms
Stream size                      : 50.3 MiB (5%)

Audio #2
ID                               : 137 (0x89)
Format                           : DTS
Format/Info                      : Digital Theater Systems
Format profile                   : 96/24
Duration                         : 15mn 41s
Bit rate mode                    : Constant
Bit rate                         : 1 510 Kbps
Channel(s)                       : 5 channels
Channel positions                : Front: L C R, Side: L R
Sampling rate                    : 96.0 KHz
Bit depth                        : 24 bits
Video delay                      : -4ms
Stream size                      : 169 MiB (17%)"
